<svg xmlns="http://www.w3.org/2000/svg" viewBox="0 0 100 100" width="400px" height="400px"><path fill="#60be92" d="M70,83H31c-7.18,0-13-5.82-13-13V31c0-7.18,5.82-13,13-13h39c7.18,0,13,5.82,13,13v39 C83,77.18,77.18,83,70,83z"/><path fill="none" stroke="#1f212b" stroke-linecap="round" stroke-miterlimit="10" d="M68.5 22.551c-.33-.03-.662-.051-1-.051h-34c-6.075 0-11 4.925-11 11v34c0 6.075 4.925 11 11 11h34c6.075 0 11-4.925 11-11v-18M78.5 39.5L78.5 37.5M78.5 46.5L78.5 42.5"/><path fill="none" stroke="#1f212b" stroke-miterlimit="10" stroke-width="2" d="M70,83H31c-7.18,0-13-5.82-13-13V31 c0-7.18,5.82-13,13-13h39c7.18,0,13,5.82,13,13v39C83,77.18,77.18,83,70,83z"/><path fill="#fff" d="M31.5 29.5H50.5V71.5H31.5z"/><path fill="#fff" d="M61 29.5A10.5 10.5 0 1 0 61 50.5 10.5 10.5 0 1 0 61 29.5zM61 50.5A10.5 10.5 0 1 0 61 71.5 10.5 10.5 0 1 0 61 50.5z"/><path fill="none" stroke="#1f212b" stroke-linejoin="round" stroke-miterlimit="10" d="M31.5 29.5H50.5V71.5H31.5z"/><path fill="none" stroke="#1f212b" stroke-miterlimit="10" d="M61 29.5A10.5 10.5 0 1 0 61 50.5 10.5 10.5 0 1 0 61 29.5zM61 50.5A10.5 10.5 0 1 0 61 71.5 10.5 10.5 0 1 0 61 50.5z"/></svg>